<svg xmlns="http://www.w3.org/2000/svg" xmlns:xlink="http://www.w3.org/1999/xlink" viewBox="0,0,256,256" width="50px" height="50px" fill-rule="nonzero"><g fill="#ffffff" fill-rule="nonzero" stroke="none" stroke-width="1" stroke-linecap="butt" stroke-linejoin="miter" stroke-miterlimit="10" stroke-dasharray="" stroke-dashoffset="0" font-family="none" font-weight="none" font-size="none" text-anchor="none" style="mix-blend-mode: normal"><g transform="scale(5.12,5.12)"><path d="M47.91992,8.41016c-0.1,0 -0.21031,0.02055 -0.32031,0.06055l-12.92969,4.30859c-0.4,0.13 -0.66969,0.50164 -0.67969,0.93164c-0.19,7.78 -3.43109,14.56969 -7.62109,19.42969c0.47,0.5 0.9707,0.97992 1.4707,1.41992c4.37,-5.01 7.76086,-11.96133 8.13086,-20.11133l10.72852,-3.56836c-1.54,7.83 -8.65859,18.25859 -17.80859,24.55859c0.56,0.46 1.12922,0.87047 1.69922,1.23047c10.03,-7.15 17.49008,-18.87016 18.33008,-27.16016c0.06,-0.61 -0.43,-1.09961 -1,-1.09961zM2.07813,8.41406c-0.568,0 -1.061,0.48675 -1,1.09375c1.264,12.47 17.50048,32.69475 34.89648,33.46875c0.014,0.001 0.02897,0.00195 0.04297,0.00195c0.542,0 0.98242,-0.45591 0.98242,-1.00391v-0.0332c0,-0.502 -0.36819,-0.93728 -0.86719,-0.98828c-7.914,-0.798 -19.76205,-12.16505 -20.12305,-27.24805c-0.01,-0.422 -0.27773,-0.79569 -0.67773,-0.92969l-12.93359,-4.30859c-0.107,-0.036 -0.21531,-0.05273 -0.32031,-0.05273zM3.30469,10.87695l10.72852,3.57422c0.474,10.435 5.91377,18.92642 12.00977,23.85742c-11.452,-5.49 -20.93628,-18.24364 -22.73828,-27.43164zM19.34961,39.05078c-1.91,1.08 -3.78047,1.74016 -5.48047,1.91016c-0.5,0.05 -0.86914,0.47852 -0.86914,0.97852v0.03125c0,0.55 0.44047,1.00977 0.98047,1.00977h0.04883c2.93,-0.13 5.83086,-0.81969 8.63086,-1.92969c-1.13,-0.6 -2.23055,-1.28 -3.31055,-2z"></path></g></g></svg>